<?xml version="1.0" standalone="no"?><!DOCTYPE svg PUBLIC "-//W3C//DTD SVG 1.1//EN" "http://www.w3.org/Graphics/SVG/1.1/DTD/svg11.dtd"><svg t="1660376091422" class="icon" viewBox="0 0 1024 1024" version="1.1" xmlns="http://www.w3.org/2000/svg" p-id="9606" xmlns:xlink="http://www.w3.org/1999/xlink" width="32" height="32"><defs><style type="text/css"></style></defs><path d="M598 327.7H426c-54.2 0-98.3 44.1-98.3 98.3v172c0 54.2 44.1 98.3 98.3 98.3h172c54.2 0 98.3-44.1 98.3-98.3V426c0-54.2-44.1-98.3-98.3-98.3zM614.4 598c0 8.9-7.5 16.4-16.4 16.4H426c-8.9 0-16.4-7.5-16.4-16.4V426c0-8.9 7.5-16.4 16.4-16.4h172c8.9 0 16.4 7.5 16.4 16.4v172z" p-id="9607"></path><path d="M962.6 573.4h-81.9V450.6h81.9c22.5 0 41-18.4 41-41 0-22.5-18.4-41-41-41h-81.9v-90.7c0-74.2-60.4-134.6-134.6-134.6h-90.7V61.4c0-22.5-18.4-41-41-41-22.5 0-41 18.4-41 41v81.9H450.6V61.4c0-22.5-18.4-41-41-41s-41 18.4-41 41v81.9h-90.7c-74.2 0-134.6 60.4-134.6 134.6v90.7H61.4c-22.5 0-41 18.4-41 41 0 22.5 18.4 41 41 41h81.9v122.9H61.4c-22.5 0-41 18.4-41 41 0 22.5 18.4 41 41 41h81.9v90.7c0 74.2 60.4 134.6 134.6 134.6h90.7v81.9c0 22.5 18.4 41 41 41s41-18.4 41-41v-81.9h122.9v81.9c0 22.5 18.4 41 41 41 22.5 0 41-18.4 41-41v-81.9h90.7c74.2 0 134.6-60.4 134.6-134.6v-90.7h81.9c22.5 0 41-18.4 41-41-0.2-22.6-18.6-41.1-41.1-41.1zM798.7 746.1c0 29-23.6 52.7-52.7 52.7H277.9c-29 0-52.7-23.6-52.7-52.7V277.9c0-29 23.6-52.7 52.7-52.7H746c29 0 52.7 23.6 52.7 52.7v468.2z" p-id="9608"></path></svg>