<?xml version="1.0" standalone="no"?><!DOCTYPE svg PUBLIC "-//W3C//DTD SVG 1.1//EN" "http://www.w3.org/Graphics/SVG/1.1/DTD/svg11.dtd"><svg t="1660375574237" class="icon" viewBox="0 0 1024 1024" version="1.1" xmlns="http://www.w3.org/2000/svg" p-id="1827" width="32" height="32" xmlns:xlink="http://www.w3.org/1999/xlink"><defs><style type="text/css"></style></defs><path d="M435.370667 612.266667l0.298666 0.426666-42.624 102.954667a220.629333 220.629333 0 0 1-88.533333-110.805333l109.994667-18.645334 0.170666 0.213334a18.773333 18.773333 0 0 1 20.650667 25.856z m-35.541334-90.837334a18.773333 18.773333 0 0 0 7.381334-32.256l0.085333-0.469333L323.626667 413.866667a219.434667 219.434667 0 0 0-31.146667 138.88l107.264-30.933334 0.085333-0.384z m48.853334-84.48a18.773333 18.773333 0 0 0 29.824-14.378666l0.426666-0.213334 6.4-111.786666a219.477333 219.477333 0 0 0-128.426666 61.525333l91.605333 64.981333 0.170667-0.085333z m32.426666 117.333334l30.848 14.890666 30.805334-14.805333 7.68-33.28-21.333334-26.581333h-34.304l-21.333333 26.581333 7.637333 33.237333z m64-132.053334a18.773333 18.773333 0 0 0 29.866667 14.336l0.341333 0.128 91.050667-64.554666a221.354667 221.354667 0 0 0-127.658667-61.525334l6.314667 111.573334 0.085333 0.042666z m464.042667 254.72l-246.314667 306.389334a68.266667 68.266667 0 0 1-53.248 25.344l-395.136 0.128a68.266667 68.266667 0 0 1-53.205333-25.429334l-246.442667-306.346666a67.541333 67.541333 0 0 1-13.098666-57.173334L89.6 237.781333c4.608-20.053333 18.133333-36.864 36.821333-45.781333L482.346667 21.888a68.522667 68.522667 0 0 1 59.093333 0l356.053333 170.026667c18.688 8.917333 32.213333 25.770667 36.821334 45.781333l87.978666 382.08c4.608 20.053333-0.213333 41.088-13.141333 57.173333z m-140.330667-87.765333c-1.792-0.426667-4.394667-1.109333-6.186666-1.450667-7.424-1.408-13.44-1.066667-20.437334-1.621333-14.933333-1.578667-27.221333-2.858667-38.186666-6.314667-4.48-1.706667-7.68-7.04-9.216-9.216l-8.576-2.517333a275.2 275.2 0 0 0-4.48-99.498667 275.84 275.84 0 0 0-39.936-92.288c2.218667-2.005333 6.4-5.674667 7.552-6.784 0.341333-3.84 0.042667-7.808 4.010666-12.032 8.405333-7.893333 18.944-14.421333 31.701334-22.272 6.058667-3.584 11.648-5.845333 17.706666-10.325333 1.365333-1.024 3.242667-2.645333 4.693334-3.797333 10.24-8.149333 12.586667-22.186667 5.248-31.402667-7.338667-9.216-21.589333-10.069333-31.786667-1.92-1.450667 1.152-3.413333 2.645333-4.736 3.754667-5.717333 4.949333-9.258667 9.813333-14.08 14.933333-10.496 10.666667-19.2 19.541333-28.714667 25.984-4.138667 2.389333-10.197333 1.578667-12.928 1.408l-8.106666 5.76a279.253333 279.253333 0 0 0-176.896-85.461333l-0.512-9.514667c-2.773333-2.645333-6.101333-4.906667-6.954667-10.666667-0.938667-11.434667 0.64-23.765333 2.432-38.613333 0.981333-6.954667 2.602667-12.714667 2.901333-20.266667 0.042667-1.706667-0.042667-4.224-0.042666-6.058666 0-13.056-9.557333-23.68-21.333334-23.68-11.733333 0-21.290667 10.624-21.290666 23.68l0.042666 0.597333c0 1.749333-0.085333 3.925333 0 5.461333 0.256 7.552 1.877333 13.312 2.858667 20.266667 1.792 14.848 3.328 27.178667 2.389333 38.656a23.253333 23.253333 0 0 1-6.912 11.008l-0.512 9.002667a274.090667 274.090667 0 0 0-177.749333 85.461333 357.248 357.248 0 0 1-7.68-5.461333c-3.84 0.512-7.68 1.706667-12.672-1.237334-9.514667-6.4-18.218667-15.274667-28.714667-25.941333-4.821333-5.12-8.32-9.984-14.037333-14.890667a114.816 114.816 0 0 0-4.736-3.754666 25.344 25.344 0 0 0-14.848-5.632 20.522667 20.522667 0 0 0-16.981333 7.509333c-7.338667 9.216-4.992 23.296 5.248 31.445333l0.298666 0.213334 4.437334 3.541333c6.058667 4.48 11.605333 6.784 17.664 10.325333 12.757333 7.893333 23.296 14.421333 31.701333 22.272 3.242667 3.498667 3.84 9.642667 4.266667 12.288l6.826666 6.101334a275.712 275.712 0 0 0-43.52 192.256l-8.874666 2.56c-2.346667 3.072-5.674667 7.850667-9.173334 9.258666-10.965333 3.456-23.296 4.693333-38.186666 6.272-6.997333 0.597333-13.013333 0.256-20.48 1.664-1.578667 0.298667-3.84 0.853333-5.674667 1.28l-0.170667 0.085334-0.298666 0.085333c-12.586667 3.029333-20.650667 14.592-18.048 25.941333 2.602667 11.392 14.890667 18.304 27.52 15.573334l0.298666-0.042667 0.426667-0.128 5.504-1.237333c7.253333-1.962667 12.544-4.821333 19.114667-7.338667 14.08-5.034667 25.770667-9.258667 37.12-10.922667 4.778667-0.384 9.813333 2.944 12.288 4.309334l9.258666-1.578667a277.333333 277.333333 0 0 0 122.88 153.429333l-3.84 9.301334c1.408 3.584 2.944 8.490667 1.877334 12.032-4.138667 10.752-11.221333 22.058667-19.285334 34.688-3.882667 5.802667-7.893333 10.325333-11.434666 17.024-0.853333 1.578667-1.92 4.053333-2.730667 5.717333-5.461333 11.733333-1.450667 25.216 9.088 30.293333 10.581333 5.12 23.722667-0.298667 29.44-12.032v-0.085333c0.853333-1.664 1.962667-3.84 2.645333-5.418667 2.986667-6.912 4.010667-12.842667 6.144-19.541333 5.632-14.165333 8.746667-29.013333 16.512-38.272 2.133333-2.56 5.546667-3.498667 9.173334-4.48l4.821333-8.746667a275.328 275.328 0 0 0 196.650667 0.512l4.522666 8.192c3.669333 1.194667 7.68 1.792 10.922667 6.613334 5.802667 9.898667 9.770667 21.632 14.592 35.84 2.133333 6.656 3.157333 12.586667 6.186667 19.498666 0.682667 1.578667 1.834667 3.84 2.645333 5.504 5.674667 11.776 18.858667 17.152 29.44 12.032 10.538667-5.034667 14.549333-18.56 9.088-30.293333-0.853333-1.664-1.92-4.096-2.773333-5.717333-3.541333-6.656-7.552-11.136-11.434667-16.981334-8.106667-12.629333-14.762667-23.082667-18.901333-33.834666-1.706667-5.546667 0.298667-8.96 1.621333-12.544-0.768-0.938667-2.517333-6.144-3.541333-8.618667a277.290667 277.290667 0 0 0 122.88-154.538667c2.730667 0.426667 7.509333 1.28 9.088 1.621334 3.2-2.133333 6.144-4.864 11.946666-4.437334 11.349333 1.664 23.04 5.888 37.12 10.922667 6.570667 2.56 11.818667 5.461333 19.114667 7.381333 1.536 0.426667 3.754667 0.810667 5.546667 1.194667l0.384 0.128 0.298666 0.042667c12.672 2.730667 24.917333-4.181333 27.52-15.573334 2.56-11.349333-5.461333-22.912-18.048-25.941333zM699.733333 413.909333l-83.2 74.496v0.213334a18.773333 18.773333 0 0 0 7.381334 32.298666l0.128 0.426667 107.776 31.061333a221.824 221.824 0 0 0-4.608-71.424A222.208 222.208 0 0 0 699.733333 413.866667z m-171.221333 227.2a18.645333 18.645333 0 0 0-17.237333-9.898666 18.773333 18.773333 0 0 0-15.872 9.941333h-0.085334l-54.101333 97.792a220.330667 220.330667 0 0 0 141.909333 0.128l-54.186666-97.962667h-0.426667z m80.554667-55.168a18.773333 18.773333 0 0 0-11.52 1.536 18.773333 18.773333 0 0 0-9.130667 24.405334l-0.128 0.170666 43.093333 104.021334a219.733333 219.733333 0 0 0 88.789334-111.573334l-110.933334-18.773333-0.170666 0.213333z" p-id="1828" fill="#f46729"></path></svg>