<?xml version="1.0" standalone="no"?><!DOCTYPE svg PUBLIC "-//W3C//DTD SVG 1.1//EN" "http://www.w3.org/Graphics/SVG/1.1/DTD/svg11.dtd"><svg t="1660376181240" class="icon" viewBox="0 0 1024 1024" version="1.1" xmlns="http://www.w3.org/2000/svg" p-id="11338" xmlns:xlink="http://www.w3.org/1999/xlink" width="32" height="32"><defs><style type="text/css"></style></defs><path d="M862.08 699.392c-105.344 140.330667-330.282667 92.970667-474.538667 99.754667 0 0-25.557333 1.450667-51.242666 5.674666 0 0 9.728-4.138667 22.144-8.448 101.290667-35.029333 149.162667-42.069333 210.730666-73.685333 115.626667-59.221333 230.741333-188.288 254.165334-322.346667-44.032 128.938667-177.92 239.914667-299.818667 284.970667-83.413333 30.805333-234.325333 60.757333-234.368 60.757333a225.28 225.28 0 0 1-6.101333-3.242666c-102.613333-49.92-105.6-272.213333 80.810666-343.850667 81.749333-31.402667 159.872-14.165333 248.234667-35.2 94.208-22.4 203.349333-93.013333 247.68-185.344 49.706667 147.541333 109.44 378.282667 2.304 520.96z m1.792-566.613333a393.045333 393.045333 0 0 1-45.44 80.64 425.898667 425.898667 0 0 0-305.792-129.322667C276.992 84.096 85.333333 275.754667 85.333333 511.36a425.941333 425.941333 0 0 0 136.746667 312.917333l9.386667 8.277334a36.522667 36.522667 0 1 1 0.042666 0.042666l6.357334 5.632A424.96 424.96 0 0 0 512.64 938.666667c225.194667 0 410.154667-175.274667 425.984-396.458667 11.690667-108.330667-20.309333-245.888-74.752-409.429333" p-id="11339"></path></svg>