<?xml version="1.0" standalone="no"?><!DOCTYPE svg PUBLIC "-//W3C//DTD SVG 1.1//EN" "http://www.w3.org/Graphics/SVG/1.1/DTD/svg11.dtd"><svg t="1660375987068" class="icon" viewBox="0 0 1024 1024" version="1.1" xmlns="http://www.w3.org/2000/svg" p-id="5080" xmlns:xlink="http://www.w3.org/1999/xlink" width="32" height="32"><defs><style type="text/css"></style></defs><path d="M546.873576 34.909067a34.909067 34.909067 0 0 0-69.818134 0v36.235612C212.910168 88.948303 3.688492 306.897245 0.011404 574.696335c-0.837818 62.370867 45.055969 118.458101 107.310472 123.159189A116.363557 116.363557 0 0 0 232.691972 581.817785h-162.90898c0-232.028933 179.758423-422.492803 407.27245-440.389518V360.727027a34.909067 34.909067 0 1 0 69.818134 0V141.428267c227.514027 17.896715 407.27245 208.360585 407.27245 440.389518h-162.90898a116.363557 116.363557 0 0 0 125.370096 116.037739c62.254503-4.677815 108.14829-60.765049 107.310473-123.159189-3.653816-267.775817-212.898764-485.748032-477.044039-503.551656V34.909067z m33.978159 580.933422l-22.31853 21.45744 5.306178 30.487252 5.655269 32.44216-30.789797-15.941808-26.740346-13.847263-26.740345 13.847263-30.789797 15.941808 5.655268-32.418887 5.306179-30.510525-22.318531-21.45744-23.109802-22.178894 32.767978-4.701087 30.138161-4.305452 13.637809-27.229072 15.45308-30.859616 15.45308 30.882888 13.661082 27.2058 30.138161 4.305452 32.744705 4.701087-23.109802 22.178894z m113.570832-68.002863l-114.967195-16.453806-51.432692-102.632658a17.733806 17.733806 0 0 0-16.058171-9.844357 17.733806 17.733806 0 0 0-16.058171 9.844357l-51.409419 102.632658-114.967195 16.453806a17.570897 17.570897 0 0 0-9.96072 30.091616l83.223216 79.871946-19.642169 112.802832c-2.001453 11.403629 7.214541 20.666168 17.640716 20.666168 2.74618 0 5.585451-0.628363 8.33163-2.094544L512.011055 735.976225l102.818839 53.247964c2.74618 1.442908 5.585451 2.071271 8.33163 2.071271 10.47272 0 19.642168-9.262539 17.687261-20.666167l-19.688714-112.802832 83.223216-79.871946a17.570897 17.570897 0 0 0-9.937448-30.091616z m141.172267 292.398347a34.466886 34.466886 0 0 0-35.53743 6.283632 440.0637 440.0637 0 0 1-253.183828 106.053746V802.908543a34.909067 34.909067 0 0 0-69.818134 0v149.643535A440.0637 440.0637 0 0 1 223.894887 846.56815a34.466886 34.466886 0 0 0-35.53743-6.306905c-29.95198 11.636356-32.465432 41.053063-7.959267 61.88214A509.881834 509.881834 0 0 0 511.964509 1023.999302c126.510459 0 242.268926-45.870514 331.589592-121.87919 24.506165-20.829077 21.992712-50.269057-7.959267-61.905412z" p-id="5081" fill="#f46729"></path></svg>